<svg width="56" height="19" viewBox="0 0 56 19" fill="none" xmlns="http://www.w3.org/2000/svg">
<path fill-rule="evenodd" clip-rule="evenodd" d="M2.70715 14L8.72979 0.356476H13.9233L19.9655 14H2.70715ZM1.82429 16L0.5 19H5.87999L7.08398 16H1.82429ZM15.4893 16L16.6932 19H22.1798L20.8512 16H15.4893ZM25.1443 16V19H30.4177V16H25.1443ZM38 16V19H43.2735V16H38ZM45 14.0462V14H38V0.356476H46.5228C48.2273 0.356476 49.6922 0.63169 50.9173 1.18212C52.1602 1.73255 53.119 2.53156 53.7937 3.57914C54.4685 4.60898 54.8058 5.83413 54.8058 7.25459C54.8058 8.65729 54.4685 9.87356 53.7937 10.9034C53.1627 11.8499 52.2832 12.5945 51.1552 13.1373L55.1787 19H49.5324L46.1521 14.0462H45ZM30.4177 14H25.1443V12.2387L18.0331 0.356476H23.5995L28.011 7.75439L32.4419 0.356476H37.5556L30.4177 12.3215V14ZM11.2866 5.52813L13.679 11.4893H8.89423L11.2866 5.52813ZM43.2735 9.97121H46.2032C47.304 9.97121 48.1208 9.73151 48.6535 9.25211C49.2039 8.7727 49.4791 8.10686 49.4791 7.25459C49.4791 6.38455 49.2039 5.70984 48.6535 5.23043C48.1208 4.75102 47.304 4.51132 46.2032 4.51132H43.2735V9.97121Z" fill="black"/>
</svg>
