<svg width="306" height="130" viewBox="0 0 306 130" fill="none" xmlns="http://www.w3.org/2000/svg">
<path d="M59.484 128V112.092L56.86 107.828V77.652C56.86 73.2787 55.4933 69.944 52.76 67.648C50.136 65.352 45.8173 64.204 39.804 64.204C35.7587 64.204 31.6587 64.86 27.504 66.172C23.3493 67.3747 19.796 69.0693 16.844 71.256L5.036 46.82C10.284 43.54 16.5707 41.0253 23.896 39.276C31.2213 37.5267 38.3827 36.652 45.38 36.652C60.796 36.652 72.7133 40.096 81.132 46.984C89.66 53.872 93.924 64.8053 93.924 79.784V128H59.484ZM34.064 129.64C26.7387 129.64 20.616 128.383 15.696 125.868C10.776 123.353 7.05867 120.019 4.544 115.864C2.02933 111.6 0.772 106.899 0.772 101.76C0.772 95.9653 2.248 91.0453 5.2 87C8.152 82.9547 12.6347 79.8933 18.648 77.816C24.7707 75.7387 32.4787 74.7 41.772 74.7H60.468V92.576H47.676C43.74 92.576 40.8427 93.232 38.984 94.544C37.2347 95.7467 36.36 97.6053 36.36 100.12C36.36 102.197 37.1253 103.947 38.656 105.368C40.296 106.68 42.4827 107.336 45.216 107.336C47.7307 107.336 50.0267 106.68 52.104 105.368C54.2907 103.947 55.876 101.76 56.86 98.808L61.616 109.796C60.1947 116.465 57.188 121.44 52.596 124.72C48.004 128 41.8267 129.64 34.064 129.64ZM67.848 29.764C63.6933 29.764 60.1947 28.452 57.352 25.828C54.5093 23.204 53.088 19.7053 53.088 15.332C53.088 10.9587 54.5093 7.45999 57.352 4.83599C60.1947 2.10266 63.6933 0.735996 67.848 0.735996C72.0027 0.735996 75.5013 2.10266 78.344 4.83599C81.1867 7.45999 82.608 10.9587 82.608 15.332C82.608 19.7053 81.1867 23.204 78.344 25.828C75.5013 28.452 72.0027 29.764 67.848 29.764ZM31.44 29.764C27.2853 29.764 23.7867 28.452 20.944 25.828C18.1013 23.204 16.68 19.7053 16.68 15.332C16.68 10.9587 18.1013 7.45999 20.944 4.83599C23.7867 2.10266 27.2853 0.735996 31.44 0.735996C35.5947 0.735996 39.0933 2.10266 41.936 4.83599C44.7787 7.45999 46.2 10.9587 46.2 15.332C46.2 19.7053 44.7787 23.204 41.936 25.828C39.0933 28.452 35.5947 29.764 31.44 29.764Z" fill="#0000FF"/>
<path d="M142.414 128L105.35 39.768H131.754L162.586 115.7H149.466L181.446 39.768H206.046L168.818 128H142.414ZM262.791 129.312C252.733 129.312 243.877 127.344 236.223 123.408C228.679 119.472 222.83 114.115 218.675 107.336C214.521 100.448 212.443 92.6307 212.443 83.884C212.443 75.028 214.466 67.2107 218.511 60.432C222.666 53.544 228.297 48.1867 235.403 44.36C242.51 40.424 250.546 38.456 259.511 38.456C268.149 38.456 275.911 40.3147 282.799 44.032C289.797 47.64 295.318 52.888 299.363 59.776C303.409 66.5547 305.431 74.7 305.431 84.212C305.431 85.196 305.377 86.344 305.267 87.656C305.158 88.8587 305.049 90.0067 304.939 91.1H233.271V76.176H291.491L281.651 80.604C281.651 76.012 280.722 72.0213 278.863 68.632C277.005 65.2427 274.435 62.6187 271.155 60.76C267.875 58.792 264.049 57.808 259.675 57.808C255.302 57.808 251.421 58.792 248.031 60.76C244.751 62.6187 242.182 65.2973 240.323 68.796C238.465 72.1853 237.535 76.2307 237.535 80.932V84.868C237.535 89.6787 238.574 93.9427 240.651 97.66C242.838 101.268 245.845 104.056 249.671 106.024C253.607 107.883 258.199 108.812 263.447 108.812C268.149 108.812 272.249 108.101 275.747 106.68C279.355 105.259 282.635 103.127 285.587 100.284L299.199 115.044C295.154 119.636 290.07 123.189 283.947 125.704C277.825 128.109 270.773 129.312 262.791 129.312Z" fill="black"/>
</svg>
