<svg width="76" height="37" viewBox="0 0 76 37" fill="none" xmlns="http://www.w3.org/2000/svg">
<circle cx="18.5" cy="18.5" r="18.5" fill="#03B3FF"/>
<path d="M46.6178 15.5848C47.7804 15.5848 48.8163 15.842 49.7255 16.3565C50.6496 16.8709 51.3725 17.5972 51.8942 18.5354C52.4159 19.4735 52.6767 20.5554 52.6767 21.781C52.6767 23.0067 52.4159 24.0961 51.8942 25.0494C51.3725 25.9875 50.6496 26.7138 49.7255 27.2283C48.8163 27.7428 47.7804 28 46.6178 28C45.7981 28 45.0454 27.8563 44.3597 27.5688C43.689 27.2813 43.1226 26.85 42.6605 26.275V27.8411H40V11H42.7947V17.1963C43.2717 16.6667 43.8306 16.2657 44.4715 15.9933C45.1273 15.721 45.8428 15.5848 46.6178 15.5848ZM46.3048 25.5714C47.3333 25.5714 48.1754 25.2234 48.8312 24.5274C49.502 23.8313 49.8373 22.9159 49.8373 21.781C49.8373 20.6462 49.502 19.7308 48.8312 19.0347C48.1754 18.3387 47.3333 17.9907 46.3048 17.9907C45.6341 17.9907 45.0304 18.1495 44.4939 18.4673C43.9573 18.7699 43.5325 19.2087 43.2195 19.7837C42.9065 20.3587 42.75 21.0245 42.75 21.781C42.75 22.5376 42.9065 23.2034 43.2195 23.7784C43.5325 24.3534 43.9573 24.7997 44.4939 25.1175C45.0304 25.4201 45.6341 25.5714 46.3048 25.5714Z" fill="#03B3FF"/>
<path d="M59.0645 15.5848C60.8233 15.5848 62.1648 16.016 63.0889 16.8785C64.0279 17.7259 64.4974 19.012 64.4974 20.737V27.8411H61.8592V26.3658C61.5164 26.8954 61.0245 27.304 60.3836 27.5915C59.7576 27.8638 58.9974 28 58.1031 28C57.2088 28 56.4263 27.8487 55.7556 27.5461C55.0849 27.2283 54.5632 26.7971 54.1906 26.2523C53.8329 25.6925 53.654 25.0645 53.654 24.3685C53.654 23.279 54.049 22.409 54.8389 21.7583C55.6438 21.0926 56.9033 20.7597 58.6174 20.7597H61.7027V20.5781C61.7027 19.7308 61.4493 19.0801 60.9425 18.6262C60.4507 18.1722 59.7129 17.9453 58.7292 17.9453C58.0584 17.9453 57.3952 18.0512 56.7393 18.263C56.0984 18.4749 55.5544 18.7699 55.1072 19.1482L54.0117 17.0828C54.6377 16.5986 55.3904 16.2279 56.2698 15.9706C57.1492 15.7134 58.0808 15.5848 59.0645 15.5848ZM58.6844 25.9346C59.385 25.9346 60.0035 25.7757 60.5401 25.4579C61.0916 25.1251 61.4791 24.656 61.7027 24.0507V22.6435H58.8186C57.2088 22.6435 56.404 23.1807 56.404 24.255C56.404 24.7695 56.6052 25.178 57.0076 25.4806C57.4101 25.7833 57.969 25.9346 58.6844 25.9346Z" fill="#03B3FF"/>
<path d="M67.4133 11H70.208V27.8411H67.4133V11Z" fill="#03B3FF"/>
<path d="M73.2053 11H76V27.8411H73.2053V11Z" fill="#03B3FF"/>
<path fill-rule="evenodd" clip-rule="evenodd" d="M18.5 32.4878C26.2253 32.4878 32.4878 26.2252 32.4878 18.5C32.4878 10.7747 26.2253 4.51219 18.5 4.51219C10.7748 4.51219 4.51221 10.7747 4.51221 18.5C4.51221 26.2252 10.7748 32.4878 18.5 32.4878ZM26.4154 26.1656C25.9325 26.7313 25.3668 27.159 24.7183 27.4488C24.0835 27.7386 23.3867 27.8834 22.6279 27.8834C21.6344 27.8834 20.7237 27.6558 19.8958 27.2004C19.068 26.7589 18.1228 25.9862 17.0604 24.8824C15.722 24.772 14.5215 24.3856 13.4591 23.7233C12.3966 23.0472 11.5688 22.1711 10.9754 21.0948C10.3821 20.0048 10.0855 18.7975 10.0855 17.4728C10.0855 16.0654 10.4235 14.796 11.0996 13.6646C11.7757 12.5194 12.7071 11.6294 13.8937 10.9947C15.0803 10.3462 16.4119 10.0219 17.8882 10.0219C19.3646 10.0219 20.6961 10.3462 21.8828 10.9947C23.0694 11.6294 24.0008 12.5125 24.6769 13.6439C25.353 14.7753 25.691 16.0516 25.691 17.4728C25.691 18.6181 25.4633 19.6805 25.008 20.6602C24.5527 21.626 23.918 22.4539 23.1039 23.1438C22.2898 23.8199 21.3446 24.3097 20.2684 24.6133C20.6685 25.041 21.0618 25.3515 21.4481 25.5447C21.8345 25.7378 22.2484 25.8344 22.6899 25.8344C23.642 25.8344 24.4699 25.4481 25.1736 24.6754L26.4154 26.1656ZM12.7968 17.4728C12.7968 18.4387 13.0175 19.3149 13.4591 20.1014C13.9006 20.874 14.5077 21.4812 15.2804 21.9227C16.0531 22.3504 16.9224 22.5643 17.8882 22.5643C18.8541 22.5643 19.7234 22.3504 20.4961 21.9227C21.2687 21.4812 21.8759 20.874 22.3174 20.1014C22.7589 19.3149 22.9797 18.4387 22.9797 17.4728C22.9797 16.507 22.7589 15.6377 22.3174 14.865C21.8759 14.0785 21.2687 13.4714 20.4961 13.0437C19.7234 12.6021 18.8541 12.3814 17.8882 12.3814C16.9224 12.3814 16.0531 12.6021 15.2804 13.0437C14.5077 13.4714 13.9006 14.0785 13.4591 14.865C13.0175 15.6377 12.7968 16.507 12.7968 17.4728ZM19.2771 17.7229C19.2771 18.5813 18.5812 19.2771 17.7229 19.2771C16.8645 19.2771 16.1687 18.5813 16.1687 17.7229C16.1687 16.8645 16.8645 16.1687 17.7229 16.1687C18.5812 16.1687 19.2771 16.8645 19.2771 17.7229Z" fill="white"/>
</svg>
