<svg width="234" height="234" viewBox="0 0 234 234" fill="none" xmlns="http://www.w3.org/2000/svg">
<circle cx="117" cy="117" r="117" fill="#035DFF"/>
<path fill-rule="evenodd" clip-rule="evenodd" d="M117 202.959C164.474 202.959 202.959 164.474 202.959 117C202.959 69.5261 164.474 31.0408 117 31.0408C69.5261 31.0408 31.0408 69.5261 31.0408 117C31.0408 164.474 69.5261 202.959 117 202.959ZM145.662 171.993C149.647 170.212 153.124 167.584 156.091 164.107L148.46 154.95C144.136 159.698 139.048 162.072 133.197 162.072C130.484 162.072 127.94 161.479 125.566 160.292C123.192 159.105 120.775 157.197 118.316 154.568C124.93 152.703 130.738 149.693 135.741 145.538C140.744 141.298 144.644 136.21 147.443 130.275C150.241 124.255 151.64 117.726 151.64 110.688C151.64 101.954 149.562 94.1109 145.408 87.1578C141.253 80.2048 135.529 74.7781 128.237 70.8776C120.945 66.8924 112.762 64.8997 103.689 64.8997C94.6166 64.8997 86.4341 66.8924 79.142 70.8776C71.8498 74.7781 66.1263 80.2472 61.9714 87.285C57.8166 94.238 55.7392 102.039 55.7392 110.688C55.7392 118.828 57.5622 126.247 61.2083 132.946C64.8544 139.56 69.9419 144.944 76.471 149.099C83 153.169 90.377 155.543 98.6019 156.222C105.131 163.005 110.939 167.753 116.027 170.467C121.114 173.265 126.711 174.664 132.816 174.664C137.479 174.664 141.761 173.774 145.662 171.993ZM76.471 126.841C73.7576 122.008 72.4009 116.623 72.4009 110.688C72.4009 104.752 73.7576 99.4104 76.471 94.662C79.1844 89.8288 82.9152 86.0979 87.6636 83.4694C92.412 80.756 97.754 79.3993 103.689 79.3993C109.625 79.3993 114.967 80.756 119.715 83.4694C124.464 86.0979 128.195 89.8288 130.908 94.662C133.621 99.4104 134.978 104.752 134.978 110.688C134.978 116.623 133.621 122.008 130.908 126.841C128.195 131.589 124.464 135.32 119.715 138.034C114.967 140.662 109.625 141.976 103.689 141.976C97.754 141.976 92.412 140.662 87.6636 138.034C82.9152 135.32 79.1844 131.589 76.471 126.841ZM117 121.775C122.275 121.775 126.551 117.499 126.551 112.224C126.551 106.95 122.275 102.673 117 102.673C111.725 102.673 107.449 106.95 107.449 112.224C107.449 117.499 111.725 121.775 117 121.775ZM179.082 112.224C179.082 117.499 174.806 121.775 169.531 121.775C164.256 121.775 159.98 117.499 159.98 112.224C159.98 106.95 164.256 102.673 169.531 102.673C174.806 102.673 179.082 106.95 179.082 112.224Z" fill="white"/>
</svg>
