<svg width="172" height="172" viewBox="0 0 172 172" fill="none" xmlns="http://www.w3.org/2000/svg">
<path fill-rule="evenodd" clip-rule="evenodd" d="M85.9592 171.918C133.433 171.918 171.918 133.433 171.918 85.9592C171.918 38.4852 133.433 0 85.9592 0C38.4852 0 0 38.4852 0 85.9592C0 133.433 38.4852 171.918 85.9592 171.918ZM114.621 140.952C118.606 139.172 122.083 136.543 125.051 133.066L117.419 123.909C113.095 128.657 108.007 131.031 102.157 131.031C99.4432 131.031 96.8994 130.438 94.5252 129.251C92.151 128.064 89.7344 126.156 87.2754 123.527C93.8892 121.662 99.6975 118.652 104.7 114.497C109.703 110.257 113.604 105.17 116.402 99.2341C119.2 93.2139 120.599 86.6848 120.599 79.647C120.599 70.9134 118.522 63.07 114.367 56.117C110.212 49.164 104.488 43.7373 97.1961 39.8368C89.904 35.8515 81.7215 33.8589 72.6486 33.8589C63.5758 33.8589 55.3933 35.8515 48.1011 39.8368C40.809 43.7373 35.0854 49.2064 30.9306 56.2442C26.7757 63.1972 24.6983 70.9982 24.6983 79.647C24.6983 87.7871 26.5214 95.2065 30.1675 101.905C33.8135 108.519 38.9011 113.903 45.4302 118.058C51.9592 122.128 59.3362 124.502 67.5611 125.181C74.0901 131.964 79.8984 136.713 84.986 139.426C90.0735 142.224 95.6699 143.623 101.775 143.623C106.439 143.623 110.721 142.733 114.621 140.952ZM45.4302 95.8C42.7168 90.9668 41.3601 85.5825 41.3601 79.647C41.3601 73.7115 42.7168 68.3696 45.4302 63.6212C48.1435 58.788 51.8744 55.0571 56.6228 52.4285C61.3712 49.7152 66.7131 48.3585 72.6486 48.3585C78.5841 48.3585 83.9261 49.7152 88.6745 52.4285C93.4229 55.0571 97.1537 58.788 99.8671 63.6212C102.58 68.3696 103.937 73.7115 103.937 79.647C103.937 85.5825 102.58 90.9668 99.8671 95.8C97.1537 100.548 93.4229 104.279 88.6745 106.993C83.9261 109.621 78.5841 110.936 72.6486 110.936C66.7131 110.936 61.3712 109.621 56.6228 106.993C51.8744 104.279 48.1435 100.548 45.4302 95.8ZM85.9592 90.7346C91.2341 90.7346 95.5102 86.4585 95.5102 81.1836C95.5102 75.9087 91.2341 71.6326 85.9592 71.6326C80.6843 71.6326 76.4082 75.9087 76.4082 81.1836C76.4082 86.4585 80.6843 90.7346 85.9592 90.7346ZM148.041 81.1836C148.041 86.4585 143.765 90.7346 138.49 90.7346C133.215 90.7346 128.939 86.4585 128.939 81.1836C128.939 75.9087 133.215 71.6326 138.49 71.6326C143.765 71.6326 148.041 75.9087 148.041 81.1836Z" fill="white"/>
</svg>
