<svg width="234" height="234" viewBox="0 0 234 234" fill="none" xmlns="http://www.w3.org/2000/svg">
<path fill-rule="evenodd" clip-rule="evenodd" d="M117 234C181.617 234 234 181.617 234 117C234 52.3827 181.617 0 117 0C52.3827 0 0 52.3827 0 117C0 181.617 52.3827 234 117 234ZM202.959 117C202.959 164.474 164.474 202.959 117 202.959C69.526 202.959 31.0408 164.474 31.0408 117C31.0408 69.5261 69.526 31.0408 117 31.0408C164.474 31.0408 202.959 69.5261 202.959 117ZM156.091 164.107C153.124 167.584 149.647 170.212 145.662 171.993C141.761 173.774 137.479 174.664 132.816 174.664C126.711 174.664 121.114 173.265 116.027 170.467C110.939 167.753 105.131 163.005 98.6018 156.222C90.3769 155.543 83 153.169 76.4709 149.099C69.9419 144.944 64.8543 139.56 61.2082 132.946C57.5621 126.247 55.7391 118.828 55.7391 110.688C55.7391 102.039 57.8165 94.238 61.9714 87.285C66.1262 80.2472 71.8497 74.7781 79.1419 70.8776C86.4341 66.8924 94.6166 64.8997 103.689 64.8997C112.762 64.8997 120.945 66.8924 128.237 70.8776C135.529 74.7781 141.253 80.2048 145.407 87.1579C149.562 94.1109 151.64 101.954 151.64 110.688C151.64 117.726 150.241 124.255 147.442 130.275C144.644 136.21 140.744 141.298 135.741 145.538C130.738 149.693 124.93 152.703 118.316 154.568C120.775 157.197 123.192 159.105 125.566 160.292C127.94 161.479 130.484 162.072 133.197 162.072C139.048 162.072 144.136 159.698 148.46 154.95L156.091 164.107ZM72.4009 110.688C72.4009 116.623 73.7576 122.008 76.4709 126.841C79.1843 131.589 82.9152 135.32 87.6636 138.034C92.412 140.662 97.7539 141.976 103.689 141.976C109.625 141.976 114.967 140.662 119.715 138.034C124.464 135.32 128.195 131.589 130.908 126.841C133.621 122.008 134.978 116.623 134.978 110.688C134.978 104.752 133.621 99.4104 130.908 94.662C128.195 89.8288 124.464 86.0979 119.715 83.4694C114.967 80.756 109.625 79.3993 103.689 79.3993C97.7539 79.3993 92.412 80.756 87.6636 83.4694C82.9152 86.0979 79.1843 89.8288 76.4709 94.662C73.7576 99.4104 72.4009 104.752 72.4009 110.688ZM126.551 112.224C126.551 117.499 122.275 121.775 117 121.775C111.725 121.775 107.449 117.499 107.449 112.224C107.449 106.95 111.725 102.673 117 102.673C122.275 102.673 126.551 106.95 126.551 112.224ZM169.531 121.775C174.805 121.775 179.082 117.499 179.082 112.224C179.082 106.95 174.805 102.673 169.531 102.673C164.256 102.673 159.98 106.95 159.98 112.224C159.98 117.499 164.256 121.775 169.531 121.775Z" fill="#136BEE"/>
</svg>
