<svg width="607" height="190" viewBox="0 0 607 190" fill="none" xmlns="http://www.w3.org/2000/svg">
<path fill-rule="evenodd" clip-rule="evenodd" d="M85.9592 171.918C133.433 171.918 171.918 133.433 171.918 85.9592C171.918 38.4852 133.433 0 85.9592 0C38.4852 0 0 38.4852 0 85.9592C0 133.433 38.4852 171.918 85.9592 171.918ZM136.352 139.208C133.384 142.684 129.908 145.313 125.923 147.093C122.022 148.874 117.74 149.764 113.077 149.764C106.972 149.764 101.375 148.365 96.2877 145.567C91.2001 142.854 85.3918 138.105 78.8627 131.322C70.6378 130.643 63.2609 128.269 56.7318 124.199C50.2028 120.044 45.1152 114.66 41.4691 108.046C37.823 101.348 36 93.9282 36 85.7881C36 77.1392 38.0774 69.3383 42.2323 62.3853C46.3871 55.3475 52.1106 49.8784 59.4028 45.9779C66.695 41.9926 74.8775 40 83.9503 40C93.0231 40 101.206 41.9926 108.498 45.9779C115.79 49.8784 121.514 55.3051 125.668 62.2581C129.823 69.2111 131.901 77.0544 131.901 85.7881C131.901 92.8259 130.502 99.3549 127.703 105.375C124.905 111.311 121.005 116.398 116.002 120.638C110.999 124.793 105.191 127.803 98.5771 129.668C101.036 132.297 103.453 134.205 105.827 135.392C108.201 136.579 110.745 137.173 113.458 137.173C119.309 137.173 124.396 134.798 128.721 130.05L136.352 139.208ZM52.6618 85.7881C52.6618 91.7236 54.0185 97.1079 56.7318 101.941C59.4452 106.689 63.1761 110.42 67.9245 113.134C72.6729 115.762 78.0148 117.077 83.9503 117.077C89.8858 117.077 95.2277 115.762 99.9761 113.134C104.725 110.42 108.455 106.689 111.169 101.941C113.882 97.1079 115.239 91.7236 115.239 85.7881C115.239 79.8526 113.882 74.5107 111.169 69.7623C108.455 64.9291 104.725 61.1982 99.9761 58.5696C95.2277 55.8563 89.8858 54.4996 83.9503 54.4996C78.0148 54.4996 72.6729 55.8563 67.9245 58.5696C63.1761 61.1982 59.4452 64.9291 56.7318 69.7623C54.0185 74.5107 52.6618 79.8526 52.6618 85.7881ZM95.102 85.551C95.102 90.8259 90.8259 95.102 85.551 95.102C80.2761 95.102 76 90.8259 76 85.551C76 80.2761 80.2761 76 85.551 76C90.8259 76 95.102 80.2761 95.102 85.551Z" fill="#136BEE"/>
<path d="M216 152.6C205.333 152.6 196.8 148.92 190.4 141.56C184 134.093 180.8 123 180.8 108.28C180.8 93.56 184 82.4667 190.4 75C196.907 67.4267 205.493 63.64 216.16 63.64C222.773 63.64 228.16 64.8667 232.32 67.32C236.587 69.7734 240.053 72.76 242.72 76.28H243.68C243.573 74.8934 243.36 72.8667 243.04 70.2C242.827 67.4267 242.72 65.24 242.72 63.64V29.4H256.8V151H245.44L243.36 139.48H242.72C240.16 143.107 236.747 146.2 232.48 148.76C228.213 151.32 222.72 152.6 216 152.6ZM218.24 140.92C227.307 140.92 233.653 138.467 237.28 133.56C241.013 128.547 242.88 121.027 242.88 111V108.44C242.88 97.7734 241.12 89.6134 237.6 83.96C234.08 78.2 227.573 75.32 218.08 75.32C210.507 75.32 204.8 78.36 200.96 84.44C197.227 90.4134 195.36 98.4667 195.36 108.6C195.36 118.84 197.227 126.787 200.96 132.44C204.8 138.093 210.56 140.92 218.24 140.92Z" fill="#136BEE"/>
<path d="M305.957 63.64C313.317 63.64 319.611 65.24 324.837 68.44C330.171 71.64 334.224 76.1734 336.997 82.04C339.877 87.8 341.317 94.5734 341.317 102.36V110.84H282.597C282.811 120.547 285.264 127.96 289.957 133.08C294.757 138.093 301.424 140.6 309.957 140.6C315.397 140.6 320.197 140.12 324.357 139.16C328.624 138.093 332.997 136.6 337.477 134.68V147C333.104 148.92 328.784 150.307 324.517 151.16C320.251 152.12 315.184 152.6 309.317 152.6C301.211 152.6 294.011 150.947 287.717 147.64C281.531 144.333 276.677 139.427 273.157 132.92C269.744 126.307 268.037 118.253 268.037 108.76C268.037 99.3734 269.584 91.32 272.677 84.6C275.877 77.88 280.304 72.7067 285.957 69.08C291.717 65.4534 298.384 63.64 305.957 63.64ZM305.797 75.16C299.077 75.16 293.744 77.3467 289.797 81.72C285.957 85.9867 283.664 91.96 282.917 99.64H326.597C326.491 92.3867 324.784 86.52 321.477 82.04C318.171 77.4534 312.944 75.16 305.797 75.16Z" fill="#136BEE"/>
<path d="M407.79 127.32C407.79 135.64 404.697 141.933 398.51 146.2C392.323 150.467 384.003 152.6 373.55 152.6C367.577 152.6 362.403 152.12 358.03 151.16C353.763 150.2 349.977 148.867 346.67 147.16V134.36C350.083 136.067 354.19 137.667 358.99 139.16C363.897 140.547 368.857 141.24 373.87 141.24C381.017 141.24 386.19 140.12 389.39 137.88C392.59 135.533 394.19 132.44 394.19 128.6C394.19 126.467 393.603 124.547 392.43 122.84C391.257 121.133 389.123 119.427 386.03 117.72C383.043 116.013 378.723 114.093 373.07 111.96C367.523 109.827 362.777 107.693 358.83 105.56C354.883 103.427 351.843 100.867 349.71 97.88C347.577 94.8934 346.51 91.0534 346.51 86.36C346.51 79.1067 349.443 73.5067 355.31 69.56C361.283 65.6134 369.07 63.64 378.67 63.64C383.897 63.64 388.75 64.1734 393.23 65.24C397.817 66.2 402.083 67.5867 406.03 69.4L401.23 80.6C397.603 79.1067 393.817 77.8267 389.87 76.76C385.923 75.6934 381.87 75.16 377.71 75.16C371.95 75.16 367.523 76.12 364.43 78.04C361.443 79.8534 359.95 82.36 359.95 85.56C359.95 87.9067 360.643 89.9334 362.03 91.64C363.417 93.24 365.71 94.84 368.91 96.44C372.217 97.9334 376.59 99.7467 382.03 101.88C387.47 103.907 392.11 105.987 395.95 108.12C399.79 110.253 402.723 112.867 404.75 115.96C406.777 118.947 407.79 122.733 407.79 127.32Z" fill="#136BEE"/>
<path d="M424.512 33.08C426.646 33.08 428.512 33.8267 430.112 35.32C431.819 36.7067 432.672 38.9467 432.672 42.04C432.672 45.0267 431.819 47.2667 430.112 48.76C428.512 50.2534 426.646 51 424.512 51C422.166 51 420.192 50.2534 418.592 48.76C416.992 47.2667 416.192 45.0267 416.192 42.04C416.192 38.9467 416.992 36.7067 418.592 35.32C420.192 33.8267 422.166 33.08 424.512 33.08ZM431.392 65.24V151H417.312V65.24H431.392Z" fill="#136BEE"/>
<path d="M477.763 63.64C483.416 63.64 488.483 64.7067 492.963 66.84C497.549 68.9734 501.443 72.2267 504.643 76.6H505.443L507.363 65.24H518.563V152.44C518.563 164.707 515.416 173.933 509.123 180.12C502.936 186.307 493.283 189.4 480.163 189.4C467.576 189.4 457.283 187.587 449.283 183.96V171C457.709 175.48 468.269 177.72 480.963 177.72C488.323 177.72 494.083 175.533 498.243 171.16C502.509 166.893 504.643 161.027 504.643 153.56V150.2C504.643 148.92 504.696 147.107 504.803 144.76C504.909 142.307 505.016 140.6 505.123 139.64H504.483C498.723 148.28 489.869 152.6 477.923 152.6C466.829 152.6 458.136 148.707 451.842 140.92C445.656 133.133 442.562 122.253 442.562 108.28C442.562 94.6267 445.656 83.8 451.842 75.8C458.136 67.6934 466.776 63.64 477.763 63.64ZM479.683 75.48C472.536 75.48 466.989 78.36 463.043 84.12C459.096 89.7734 457.123 97.88 457.123 108.44C457.123 119 459.043 127.107 462.883 132.76C466.829 138.307 472.536 141.08 480.003 141.08C488.643 141.08 494.936 138.787 498.883 134.2C502.829 129.507 504.803 121.987 504.803 111.64V108.28C504.803 96.5467 502.776 88.1734 498.723 83.16C494.669 78.04 488.323 75.48 479.683 75.48Z" fill="#136BEE"/>
<path d="M575.88 63.64C586.12 63.64 593.853 66.1467 599.08 71.16C604.307 76.0667 606.92 84.0667 606.92 95.16V151H593V96.12C593 82.36 586.6 75.48 573.8 75.48C564.307 75.48 557.747 78.1467 554.12 83.48C550.493 88.8134 548.68 96.4934 548.68 106.52V151H534.6V65.24H545.96L548.04 76.92H548.84C551.613 72.44 555.453 69.1334 560.36 67C565.267 64.76 570.44 63.64 575.88 63.64Z" fill="#136BEE"/>
</svg>
